<svg width="320" height="446" viewBox="0 0 320 446" fill="none" xmlns="http://www.w3.org/2000/svg">
<g clip-path="url(#clip0_734_26876)">
<path d="M201 327.5V349.5" stroke="#5B5B5B" stroke-width="1.7"/>
<path d="M231 327.5V349.5" stroke="#5B5B5B" stroke-width="1.7"/>
<path d="M262 327.5V349.5" stroke="#5B5B5B" stroke-width="1.7"/>
<path d="M240.5 237.9V190.5H285.5V356.5H320" stroke="#5B5B5B" stroke-width="1.7"/>
<path d="M183 303.1V356.5H135.5" stroke="#5B5B5B" stroke-width="1.7"/>
<path d="M278 444.5H286.5" stroke="#5B5B5B" stroke-width="1.7"/>
<path d="M185 444.5H272" stroke="#5B5B5B" stroke-width="1.7"/>
<path d="M137.8 147.9C137.8 147.9 155.4 152.1 149.2 180.5L138.7 172.2" fill="url(#paint0_linear_734_26876)"/>
<path d="M105.9 147.7C105.9 147.7 88.4 152.9 95.8 181L106.5 171.9" fill="url(#paint1_linear_734_26876)"/>
<path d="M137.8 147.9C137.8 147.9 155.4 152.1 149.2 180.5L138.7 172.2" stroke="#5B5B5B" stroke-width="1.7" stroke-miterlimit="10"/>
<path d="M121.1 108C120.5 108.4 120 108.7 119.4 109C110.7 114.7 105.9 124.9 106.1 135.4L106.3 148.8L106.7 172.1H122.5L138.3 172.2L137.8 147.7L137.6 135C137.5 130.2 136.4 125.5 134.2 121.3C132 117 128.9 113.4 125.1 110.5C123.9 109.7 121.3 108 121.3 108H121.1Z" fill="white" stroke="#5B5B5B" stroke-width="1.7" stroke-miterlimit="10"/>
<path d="M105.9 147.7C105.9 147.7 88.4 152.9 95.8 181L106.5 171.9" stroke="#5B5B5B" stroke-width="1.7" stroke-miterlimit="10"/>
<path opacity="0.3" d="M127.3 144.6C123.1 147.7 117.1 146.9 114 142.6C112.4 140.4 111.8 137.8 112.2 135.4C112.4 136.9 113 138.3 114 139.6C117.2 143.8 123.1 144.7 127.3 141.6C129.4 140.1 130.6 137.8 131 135.5C131.5 138.9 130.2 142.4 127.3 144.6Z" fill="#262626"/>
<path d="M127.3 141.6C131.5 138.5 132.4 132.5 129.2 128.3C126 124.1 120.1 123.2 115.9 126.3C111.7 129.4 110.8 135.4 114 139.6C117.1 143.9 123.1 144.8 127.3 141.6Z" stroke="#5B5B5B" stroke-width="1.7" stroke-miterlimit="10"/>
<path d="M132 172.8H110.8V176.7H132V172.8Z" fill="#C4C4C4" stroke="#5B5B5B" stroke-width="1.7"/>
<path d="M132 163H127V167H132V163Z" fill="#C4C4C4"/>
<path d="M124 163H122V167H124V163Z" fill="#C4C4C4"/>
<path d="M118 177L108.2 398.7H103.6C90.1 398.7 79.2 409.9 79.5 423.4C79.5 423.7 79.3 424 78.9 424C69.5 424.2 62 431.9 62 441.3V444.9" stroke="#5B5B5B" stroke-width="1.7"/>
<path d="M125.9 176.7L138.5 414H154C171.1 414 185 427.9 185 445" stroke="#5B5B5B" stroke-width="1.7"/>
<path d="M113 271H24V415.5H0" stroke="#5B5B5B" stroke-width="1.7"/>
<path d="M259.2 237.9H166.9V303.2H259.2V237.9Z" stroke="#5B5B5B" stroke-width="1.7"/>
<path d="M231 281V261L213.5 251L196 261V281L213.5 291L231 281Z" stroke="#5B5B5B" stroke-width="2" stroke-linecap="round" stroke-linejoin="round"/>
<path d="M42 362V391.5H61.5V362H42Z" stroke="#5B5B5B" stroke-width="1.7"/>
<path d="M42 302V331.5H61.5V302H42Z" stroke="#5B5B5B" stroke-width="1.7"/>
<path d="M216.9 247.2C212.4 246.6 207.8 247.4 203.7 249.4C199.6 251.4 196.2 254.6 194 258.6C191.7 262.5 190.7 267.1 191 271.6C191.3 276.1 193 280.5 195.7 284.1C198.5 287.7 202.3 290.4 206.6 291.8C210.9 293.2 215.6 293.4 219.9 292.2C224.3 291 228.2 288.5 231.2 285.1C234.2 281.7 236.1 277.4 236.7 272.9C237.5 266.9 235.8 260.7 232.1 255.9C228.5 251.1 223 248 216.9 247.2Z" fill="#FF6C37"/>
<path d="M207.6 271.5C207.6 271.5 207.7 271.5 207.6 271.5C207.7 271.5 207.7 271.6 207.7 271.5L211.4 270.7L209.9 269.1L207.7 271.3C207.6 271.4 207.6 271.4 207.6 271.5C207.6 271.4 207.6 271.4 207.6 271.5Z" fill="white"/>
<path d="M224.9 255.7C224.4 255.7 223.9 255.8 223.4 256C222.9 256.2 222.5 256.5 222.2 256.9C221.9 257.3 221.7 257.8 221.5 258.3C221.3 258.8 221.4 259.3 221.5 259.8C221.6 260.3 221.8 260.8 222.1 261.2C222.4 261.6 222.8 261.9 223.3 262.2C223.8 262.4 224.3 262.5 224.8 262.6C225.3 262.6 225.8 262.5 226.3 262.3L224 260C224 260 224 259.9 223.9 259.9V259.8V259.7C223.9 259.7 223.9 259.6 224 259.6L227 256.6C226.4 255.9 225.6 255.6 224.9 255.7Z" fill="white"/>
<path d="M227.4 256.8L224.5 259.6L226.7 261.8C226.9 261.7 227 261.6 227.2 261.4C227.8 260.8 228.2 260 228.2 259.1C228.3 258.3 228 257.5 227.4 256.8Z" fill="white"/>
<path d="M221.7 262.1C221.6 262.1 221.5 262.1 221.5 262.1C221.4 262.1 221.4 262.1 221.3 262.2C221.3 262.2 221.2 262.2 221.2 262.3H221.1C221 262.3 221 262.4 220.9 262.4L212.4 270.9L213.4 271.9L222.4 264C222.5 264 222.5 263.9 222.5 263.9V263.8L222.6 263.7V263.6V263.5V263.4C222.6 263.3 222.6 263.3 222.6 263.2V263.1V263V262.9C222.6 262.7 222.5 262.5 222.3 262.3C222.1 262.1 221.9 262 221.7 262C221.8 262.1 221.8 262.1 221.7 262.1Z" fill="white"/>
<path d="M210.3 268.7L212 270.4L220.5 261.9C220.8 261.6 221.1 261.5 221.5 261.4C220 260.3 218.4 260.6 210.3 268.7Z" fill="white"/>
<path d="M222.9 264.4L222.8 264.5L213.8 272.4L215.3 273.9C219.2 270.3 222.5 266.9 222.9 264.4Z" fill="white"/>
<path d="M200.5 282.8C200.6 282.8 200.6 282.8 200.5 282.8C200.6 282.9 200.6 282.9 200.5 282.8L204.5 283.1L202.3 280.9L200.5 282.8C200.5 282.7 200.6 282.7 200.5 282.8Z" fill="white"/>
<path d="M202.8 280.5L205.1 282.8C205.1 282.8 205.2 282.8 205.2 282.9H205.3C205.3 282.9 205.4 282.9 205.4 282.8V282.7L205 281C205 280.9 205 280.8 205 280.7C205 280.6 205.1 280.5 205.2 280.5C209.3 278.5 212.5 276.4 214.9 274.3L213.3 272.7L209.9 273.4L202.8 280.5Z" fill="white"/>
<path d="M212.9 272.1L212 271.2L210.8 272.4L212.9 272.1Z" fill="white"/>
<path d="M227.5 258.7C227.5 258.6 227.5 258.6 227.5 258.7C227.4 258.6 227.4 258.6 227.4 258.5H227.3H227.2C227.2 258.5 227.1 258.5 227.1 258.6C227.1 258.6 227.1 258.7 227 258.7V258.8V258.9C227.1 259 227.1 259.2 227.1 259.3C227.1 259.5 227 259.6 226.9 259.7L226.8 259.8V259.9L226.9 260H227H227.1C227.1 260 227.2 260 227.2 259.9C227.4 259.7 227.5 259.5 227.5 259.2C227.7 259.1 227.6 258.9 227.5 258.7Z" fill="#FF6C37"/>
<path d="M194 162L187 164.3L194 166.6L196.3 173.6L198.6 166.6L205.6 164.3L198.6 162L196.3 155L194 162Z" fill="white" stroke="#5B5B5B" stroke-width="1.7" stroke-miterlimit="10"/>
<path d="M44 72L37 74.3L44 76.6L46.3 83.6L48.6 76.6L55.6 74.3L48.6 72L46.3 65L44 72Z" fill="white" stroke="#5B5B5B" stroke-width="1.7" stroke-miterlimit="10"/>
<path d="M161.1 7.1L157 8.5L161.1 9.9L162.5 14L163.9 9.9L168 8.5L163.9 7.1L162.5 3L161.1 7.1Z" fill="white" stroke="#5B5B5B" stroke-width="1.7" stroke-miterlimit="10"/>
</g>
<defs>
<linearGradient id="paint0_linear_734_26876" x1="144.11" y1="147.882" x2="144.11" y2="180.434" gradientUnits="userSpaceOnUse">
<stop stop-color="#FF7103"/>
<stop offset="1" stop-color="#F2A528"/>
</linearGradient>
<linearGradient id="paint1_linear_734_26876" x1="100.259" y1="147.736" x2="100.259" y2="181.06" gradientUnits="userSpaceOnUse">
<stop stop-color="#FF7103"/>
<stop offset="1" stop-color="#F2A528"/>
</linearGradient>
<clipPath id="clip0_734_26876">
<rect width="320" height="446" fill="white"/>
</clipPath>
</defs>
</svg>
